ply
format ascii 1.0
comment VCGLIB generated
element vertex 284
property float x
property float y
property float z
property float nx
property float ny
property float nz
element face 174
property list uchar int vertex_indices
end_header
-5 0 1.25 0 1.41421 1.41421 
0 0 1.25 0 0.707107 0.707107 
-5 5 1.25 0 -0.707107 0.707107 
0 5 1.25 0 -1.41421 1.41421 
-5 3.75 0 0 -1.41421 3.41421 
0 3.75 0 0 -0.707107 1.70711 
-5 1.25 0 0 0.707107 1.70711 
0 1.25 0 0 1.41421 3.41421 
-0.733047 0.356813 1.20057 -3 -1.0001 1.99989 
-0.646828 0.356813 1.20057 3 -2 1 
-0.733047 4.64255 1.20057 -3 2 1 
-0.646828 4.64255 1.20057 3 1 2 
-0.733047 4.55414 1.11435 -3 -1 0 
-0.646828 4.55414 1.11435 3 -2 0 
-0.733047 0.445222 1.11435 -4 1.31184 -0.725832 
-0.646828 0.445222 1.11435 3 -0.375996 -1.45129 
-0.733047 4.64255 0.976231 -2 1 3 
-0.646828 4.64255 0.976231 1 2 3 
-0.646828 4.55414 0.976231 2 -1 3 
-0.733047 4.55414 0.976231 -1 -2 3 
-0.733047 0.445222 0.976231 -2 0.999932 2.99993 
-0.646828 0.445222 0.976231 2 2 3 
-0.646828 0.356813 0.976231 1 -1 3 
-0.733047 0.356813 0.976231 -1 -2.00003 2.99997 
-0.760895 4.6711 0.976231 -1 2 3 
-0.618988 4.6711 0.976231 2 1 3 
-0.618988 4.52559 0.976231 1 -2 3 
-0.760895 4.52559 0.976231 -2 -1 3 
-0.760895 0.473775 0.976231 -1 2 3 
-0.61898 0.473775 0.976231 2 1 3 
-0.61898 0.32826 0.976231 1 -2 3 
-0.760895 0.32826 0.976231 -2 -1 3 
-0.760895 4.6711 0.917461 -2 1 0 
-0.618988 4.6711 0.917461 1 2 0 
-0.618988 4.52559 0.752975 2 -1 0 
-0.760895 4.52559 0.752975 -1 -2 0 
-0.760895 0.473775 0.752975 -2 1 0 
-0.61898 0.473775 0.752975 1 2 0 
-0.61898 0.32826 0.917461 2 -1 0 
-0.760895 0.32826 0.917461 -1 -2 0 
-0.733047 1.25 0.35133 -3 -1.37609 -2.4514 
-0.733047 1.28541 0.437553 -3 0.672231 2.7402 
-0.646835 1.28541 0.437553 3 1.34466 2.48072 
-0.646828 1.25 0.35133 3 -0.687902 -2.7255 
-0.733047 3.7146 0.437553 -3 -1.34515 2.48006 
-0.733047 3.75 0.35133 -3 0.688316 -2.72541 
-0.646835 3.75 0.35133 3 1.37663 -2.45074 
-0.646835 3.7146 0.437553 3 -0.672587 2.74007 
-0.646828 4.55414 1.20057 3 -1.34516 2.48006 
-0.733047 4.55414 1.20057 -3 -0.672574 2.74003 
-0.733047 4.55414 1.11435 -3 1.37663 -1.45082 
-0.646828 4.55414 1.11435 3 0.688302 -0.725414 
-0.733055 0.445222 1.20057 -2 1.34452 2.48049 
-0.646835 0.445222 1.20057 3 0.672423 2.74042 
-4.35317 0.356813 1.20057 -3 -1 2 
-4.26694 0.356813 1.20057 3 -2 1 
-4.35317 4.64255 1.20057 -3 2 1 
-4.26694 4.64255 1.20057 3 1 2 
-4.35317 4.55414 1.11435 -3 -1 0 
-4.26694 4.55414 1.11435 3 -2 0 
-4.35317 0.445222 1.11435 -4 1.31197 -0.725682 
-4.26694 0.445222 1.11435 3 -0.376061 -1.45136 
-4.35317 4.64255 0.976231 -2 1 3 
-4.26694 4.64255 0.976231 1 2 3 
-4.26694 4.55414 0.976231 2 -1 3 
-4.35317 4.55414 0.976231 -1 -2 3 
-4.35317 0.445222 0.976231 -2 1 3 
-4.26694 0.445222 0.976231 2 2 3 
-4.26694 0.356813 0.976231 1 -1 3 
-4.35317 0.356813 0.976231 -1 -2 3 
-4.38101 4.6711 0.976231 -1 2 3 
-4.2391 4.6711 0.976231 2 1 3 
-4.2391 4.52559 0.976231 1 -2 3 
-4.38101 4.52559 0.976231 -2 -1 3 
-4.38101 0.473775 0.976231 -1 2 3 
-4.2391 0.473775 0.976231 2 1 3 
-4.2391 0.32826 0.976231 1 -2 3 
-4.38101 0.32826 0.976231 -2 -1 3 
-4.38101 4.6711 0.917461 -2 1 0 
-4.2391 4.6711 0.917461 1 2 0 
-4.2391 4.52559 0.752975 2 -1 0 
-4.38101 4.52559 0.752975 -1 -2 0 
-4.38101 0.473775 0.752975 -2 1 0 
-4.2391 0.473775 0.752975 1 2 0 
-4.2391 0.32826 0.917461 2 -1 0 
-4.38101 0.32826 0.917461 -1 -2 0 
-4.35317 1.25 0.35133 -3 -1.37606 -2.45136 
-4.35317 1.28541 0.437553 -3 0.672295 2.74028 
-4.26694 1.28541 0.437553 3 1.34459 2.48057 
-4.26694 1.25 0.35133 3 -0.688031 -2.72568 
-4.35317 3.7146 0.437553 -3 -1.34515 2.48006 
-4.35317 3.75 0.35133 -3 0.688317 -2.72541 
-4.26694 3.75 0.35133 3 1.37663 -2.45082 
-4.26694 3.7146 0.437553 3 -0.672574 2.74003 
-4.26694 4.55414 1.20057 3 -1.34515 2.48006 
-4.35317 4.55414 1.20057 -3 -0.672574 2.74003 
-4.35317 4.55414 1.11435 -3 1.37663 -1.45082 
-4.26694 4.55414 1.11435 3 0.688317 -0.725411 
-4.35317 0.445222 1.20057 -2 1.34459 2.48057 
-4.26694 0.445222 1.20057 3 0.672295 2.74028 
0 3.75 0 0 -0.707107 1.70711 
-5 3.75 0 0 -1.41421 3.41421 
0 1.25 0 0 1.41421 3.41421 
-5 1.25 0 0 0.707107 1.70711 
-0.646835 1.28541 0.437553 3 1.34466 2.48072 
-0.646828 1.25 0.35133 3 -0.687902 -2.7255 
-0.646835 3.75 0.35133 3 1.37663 -2.45074 
-0.646835 3.7146 0.437553 3 -0.672587 2.74007 
-0.733047 1.25 0.35133 -3 -1.37609 -2.4514 
-0.733047 1.28541 0.437553 -3 0.672231 2.7402 
-0.733047 3.7146 0.437553 -3 -1.34515 2.48006 
-0.733047 3.75 0.35133 -3 0.688316 -2.72541 
-0.646828 4.64255 1.20057 3 1 2 
-0.646828 4.64255 0.976231 1 2 3 
-0.646828 4.55414 1.11435 3 -2 0 
-0.646828 4.55414 0.976231 2 -1 3 
-0.733047 4.55414 1.11435 -3 -1 0 
-0.733047 4.64255 1.20057 -3 2 1 
-0.733047 4.64255 0.976231 -2 1 3 
-0.733047 4.55414 0.976231 -1 -2 3 
-0.646828 0.445222 0.976231 2 2 3 
-0.646828 0.445222 1.11435 3 -0.375996 -1.45129 
-0.646828 0.356813 1.20057 3 -2 1 
-0.646828 0.356813 0.976231 1 -1 3 
-0.733047 4.64255 0.976231 -2 1 3 
-0.646828 4.64255 0.976231 1 2 3 
-0.646828 4.55414 0.976231 2 -1 3 
-0.733047 4.55414 0.976231 -1 -2 3 
-0.733047 0.445222 0.976231 -2 0.999932 2.99993 
-0.646828 0.445222 0.976231 2 2 3 
-0.646828 0.356813 0.976231 1 -1 3 
-0.733047 0.356813 0.976231 -1 -2.00003 2.99997 
-0.760895 4.6711 0.976231 -1 2 3 
-0.618988 4.6711 0.976231 2 1 3 
-0.618988 4.6711 0.976231 2 1 3 
-0.618988 4.52559 0.976231 1 -2 3 
-0.618988 4.6711 0.917461 1 2 0 
-0.618988 4.52559 0.976231 1 -2 3 
-0.760895 4.52559 0.976231 -2 -1 3 
-0.618988 4.52559 0.752975 2 -1 0 
-0.760895 4.52559 0.976231 -2 -1 3 
-0.760895 4.6711 0.976231 -1 2 3 
-0.760895 4.6711 0.917461 -2 1 0 
-0.760895 4.52559 0.752975 -1 -2 0 
-0.760895 0.473775 0.976231 -1 2 3 
-0.61898 0.473775 0.976231 2 1 3 
-0.61898 0.473775 0.976231 2 1 3 
-0.61898 0.32826 0.976231 1 -2 3 
-0.61898 0.473775 0.752975 1 2 0 
-0.61898 0.32826 0.976231 1 -2 3 
-0.760895 0.32826 0.976231 -2 -1 3 
-0.61898 0.32826 0.917461 2 -1 0 
-0.760895 0.32826 0.976231 -2 -1 3 
-0.760895 0.473775 0.976231 -1 2 3 
-0.760895 0.473775 0.752975 -2 1 0 
-0.760895 0.32826 0.917461 -1 -2 0 
-0.733047 0.445222 1.11435 -4 1.31184 -0.725832 
-0.733047 1.28541 0.437553 -3 0.672231 2.7402 
-0.733047 1.25 0.35133 -3 -1.37609 -2.4514 
-0.733055 0.445222 1.20057 -2 1.34452 2.48049 
-0.646835 0.445222 1.20057 3 0.672423 2.74042 
-0.646835 1.28541 0.437553 3 1.34466 2.48072 
-0.733047 1.28541 0.437553 -3 0.672231 2.7402 
-0.646828 1.25 0.35133 3 -0.687902 -2.7255 
-0.646835 1.28541 0.437553 3 1.34466 2.48072 
-0.733047 1.25 0.35133 -3 -1.37609 -2.4514 
-0.646828 1.25 0.35133 3 -0.687902 -2.7255 
-0.646828 0.445222 1.11435 3 -0.375996 -1.45129 
-0.733047 0.445222 1.11435 -4 1.31184 -0.725832 
-0.733047 3.75 0.35133 -3 0.688316 -2.72541 
-0.733047 3.7146 0.437553 -3 -1.34515 2.48006 
-0.733047 4.55414 1.11435 -3 1.37663 -1.45082 
-0.646835 3.75 0.35133 3 1.37663 -2.45074 
-0.733047 3.75 0.35133 -3 0.688316 -2.72541 
-0.646835 3.7146 0.437553 3 -0.672587 2.74007 
-0.646835 3.75 0.35133 3 1.37663 -2.45074 
-0.646828 4.55414 1.11435 3 0.688302 -0.725414 
-0.733047 3.7146 0.437553 -3 -1.34515 2.48006 
-0.646835 3.7146 0.437553 3 -0.672587 2.74007 
-0.646828 4.55414 1.20057 3 -1.34516 2.48006 
-0.733047 4.55414 1.20057 -3 -0.672574 2.74003 
-0.646828 4.64255 1.20057 3 1 2 
-0.733047 4.64255 1.20057 -3 2 1 
-0.733047 4.64255 1.20057 -3 2 1 
-0.733047 4.55414 1.11435 -3 -1 0 
-0.733047 4.55414 1.11435 -3 -1 0 
-0.646828 4.55414 1.11435 3 -2 0 
-0.646828 4.55414 1.11435 3 -2 0 
-0.646828 4.64255 1.20057 3 1 2 
-0.733047 0.356813 1.20057 -3 -1.0001 1.99989 
-0.646828 0.356813 1.20057 3 -2 1 
-0.733047 0.356813 1.20057 -3 -1.0001 1.99989 
-0.733047 0.445222 0.976231 -2 0.999932 2.99993 
-0.733047 0.356813 0.976231 -1 -2.00003 2.99997 
-4.26694 1.28541 0.437553 3 1.34459 2.48057 
-4.26694 1.25 0.35133 3 -0.688031 -2.72568 
-4.26694 3.75 0.35133 3 1.37663 -2.45082 
-4.26694 3.7146 0.437553 3 -0.672574 2.74003 
-4.35317 1.25 0.35133 -3 -1.37606 -2.45136 
-4.35317 1.28541 0.437553 -3 0.672295 2.74028 
-4.35317 3.7146 0.437553 -3 -1.34515 2.48006 
-4.35317 3.75 0.35133 -3 0.688317 -2.72541 
-4.26694 4.64255 1.20057 3 1 2 
-4.26694 4.64255 0.976231 1 2 3 
-4.26694 4.55414 1.11435 3 -2 0 
-4.26694 4.55414 0.976231 2 -1 3 
-4.35317 4.55414 1.11435 -3 -1 0 
-4.35317 4.64255 1.20057 -3 2 1 
-4.35317 4.64255 0.976231 -2 1 3 
-4.35317 4.55414 0.976231 -1 -2 3 
-4.26694 0.445222 0.976231 2 2 3 
-4.26694 0.445222 1.11435 3 -0.376061 -1.45136 
-4.26694 0.356813 1.20057 3 -2 1 
-4.26694 0.356813 0.976231 1 -1 3 
-4.35317 4.64255 0.976231 -2 1 3 
-4.26694 4.64255 0.976231 1 2 3 
-4.26694 4.55414 0.976231 2 -1 3 
-4.35317 4.55414 0.976231 -1 -2 3 
-4.35317 0.445222 0.976231 -2 1 3 
-4.26694 0.445222 0.976231 2 2 3 
-4.26694 0.356813 0.976231 1 -1 3 
-4.35317 0.356813 0.976231 -1 -2 3 
-4.38101 4.6711 0.976231 -1 2 3 
-4.2391 4.6711 0.976231 2 1 3 
-4.2391 4.6711 0.976231 2 1 3 
-4.2391 4.52559 0.976231 1 -2 3 
-4.2391 4.6711 0.917461 1 2 0 
-4.2391 4.52559 0.976231 1 -2 3 
-4.38101 4.52559 0.976231 -2 -1 3 
-4.2391 4.52559 0.752975 2 -1 0 
-4.38101 4.52559 0.976231 -2 -1 3 
-4.38101 4.6711 0.976231 -1 2 3 
-4.38101 4.6711 0.917461 -2 1 0 
-4.38101 4.52559 0.752975 -1 -2 0 
-4.38101 0.473775 0.976231 -1 2 3 
-4.2391 0.473775 0.976231 2 1 3 
-4.2391 0.473775 0.976231 2 1 3 
-4.2391 0.32826 0.976231 1 -2 3 
-4.2391 0.473775 0.752975 1 2 0 
-4.2391 0.32826 0.976231 1 -2 3 
-4.38101 0.32826 0.976231 -2 -1 3 
-4.2391 0.32826 0.917461 2 -1 0 
-4.38101 0.32826 0.976231 -2 -1 3 
-4.38101 0.473775 0.976231 -1 2 3 
-4.38101 0.473775 0.752975 -2 1 0 
-4.38101 0.32826 0.917461 -1 -2 0 
-4.35317 0.445222 1.11435 -4 1.31197 -0.725682 
-4.35317 1.28541 0.437553 -3 0.672295 2.74028 
-4.35317 1.25 0.35133 -3 -1.37606 -2.45136 
-4.35317 0.445222 1.20057 -2 1.34459 2.48057 
-4.26694 0.445222 1.20057 3 0.672295 2.74028 
-4.26694 1.28541 0.437553 3 1.34459 2.48057 
-4.35317 1.28541 0.437553 -3 0.672295 2.74028 
-4.26694 1.25 0.35133 3 -0.688031 -2.72568 
-4.26694 1.28541 0.437553 3 1.34459 2.48057 
-4.35317 1.25 0.35133 -3 -1.37606 -2.45136 
-4.26694 1.25 0.35133 3 -0.688031 -2.72568 
-4.26694 0.445222 1.11435 3 -0.376061 -1.45136 
-4.35317 0.445222 1.11435 -4 1.31197 -0.725682 
-4.35317 3.75 0.35133 -3 0.688317 -2.72541 
-4.35317 3.7146 0.437553 -3 -1.34515 2.48006 
-4.35317 4.55414 1.11435 -3 1.37663 -1.45082 
-4.26694 3.75 0.35133 3 1.37663 -2.45082 
-4.35317 3.75 0.35133 -3 0.688317 -2.72541 
-4.26694 3.7146 0.437553 3 -0.672574 2.74003 
-4.26694 3.75 0.35133 3 1.37663 -2.45082 
-4.26694 4.55414 1.11435 3 0.688317 -0.725411 
-4.35317 3.7146 0.437553 -3 -1.34515 2.48006 
-4.26694 3.7146 0.437553 3 -0.672574 2.74003 
-4.26694 4.55414 1.20057 3 -1.34515 2.48006 
-4.35317 4.55414 1.20057 -3 -0.672574 2.74003 
-4.26694 4.64255 1.20057 3 1 2 
-4.35317 4.64255 1.20057 -3 2 1 
-4.35317 4.64255 1.20057 -3 2 1 
-4.35317 4.55414 1.11435 -3 -1 0 
-4.35317 4.55414 1.11435 -3 -1 0 
-4.26694 4.55414 1.11435 3 -2 0 
-4.26694 4.55414 1.11435 3 -2 0 
-4.26694 4.64255 1.20057 3 1 2 
-4.35317 0.356813 1.20057 -3 -1 2 
-4.26694 0.356813 1.20057 3 -2 1 
-4.35317 0.356813 1.20057 -3 -1 2 
-4.35317 0.445222 0.976231 -2 1 3 
-4.35317 0.356813 0.976231 -1 -2 3 
3 3 2 4 
3 3 4 5 
3 7 100 101 
3 7 101 6 
3 102 103 0 
3 102 0 1 
3 41 42 47 
3 41 47 44 
3 45 46 43 
3 45 43 40 
3 104 105 106 
3 104 106 107 
3 108 109 110 
3 108 110 111 
3 10 11 17 
3 10 17 16 
3 112 13 18 
3 112 18 113 
3 114 12 19 
3 114 19 115 
3 116 117 118 
3 116 118 119 
3 14 15 21 
3 14 21 20 
3 9 22 120 
3 9 120 121 
3 9 121 53 
3 122 8 23 
3 122 23 123 
3 124 125 25 
3 124 25 24 
3 125 126 26 
3 125 26 25 
3 126 127 27 
3 126 27 26 
3 127 124 24 
3 127 24 27 
3 128 129 29 
3 128 29 28 
3 129 130 30 
3 129 30 29 
3 130 131 31 
3 130 31 30 
3 131 128 28 
3 131 28 31 
3 132 133 33 
3 132 33 32 
3 134 135 34 
3 134 34 136 
3 137 138 35 
3 137 35 139 
3 140 141 142 
3 140 142 143 
3 144 145 37 
3 144 37 36 
3 146 147 38 
3 146 38 148 
3 149 150 39 
3 149 39 151 
3 152 153 154 
3 152 154 155 
3 156 52 157 
3 156 157 158 
3 159 160 161 
3 159 161 162 
3 53 121 163 
3 53 163 164 
3 165 166 167 
3 165 167 168 
3 169 170 49 
3 169 49 50 
3 171 51 172 
3 171 172 173 
3 174 175 176 
3 174 176 48 
3 177 178 179 
3 177 179 180 
3 180 179 181 
3 180 181 182 
3 50 49 183 
3 50 183 184 
3 185 186 51 
3 185 51 171 
3 48 176 187 
3 48 187 188 
3 189 190 160 
3 189 160 159 
3 191 52 156 
3 191 156 192 
3 191 192 193 
3 87 88 93 
3 87 93 90 
3 91 92 89 
3 91 89 86 
3 194 195 196 
3 194 196 197 
3 198 199 200 
3 198 200 201 
3 56 57 63 
3 56 63 62 
3 202 59 64 
3 202 64 203 
3 204 58 65 
3 204 65 205 
3 206 207 208 
3 206 208 209 
3 60 61 67 
3 60 67 66 
3 55 68 210 
3 55 210 211 
3 55 211 99 
3 212 54 69 
3 212 69 213 
3 214 215 71 
3 214 71 70 
3 215 216 72 
3 215 72 71 
3 216 217 73 
3 216 73 72 
3 217 214 70 
3 217 70 73 
3 218 219 75 
3 218 75 74 
3 219 220 76 
3 219 76 75 
3 220 221 77 
3 220 77 76 
3 221 218 74 
3 221 74 77 
3 222 223 79 
3 222 79 78 
3 224 225 80 
3 224 80 226 
3 227 228 81 
3 227 81 229 
3 230 231 232 
3 230 232 233 
3 234 235 83 
3 234 83 82 
3 236 237 84 
3 236 84 238 
3 239 240 85 
3 239 85 241 
3 242 243 244 
3 242 244 245 
3 246 98 247 
3 246 247 248 
3 249 250 251 
3 249 251 252 
3 99 211 253 
3 99 253 254 
3 255 256 257 
3 255 257 258 
3 259 260 95 
3 259 95 96 
3 261 97 262 
3 261 262 263 
3 264 265 266 
3 264 266 94 
3 267 268 269 
3 267 269 270 
3 270 269 271 
3 270 271 272 
3 96 95 273 
3 96 273 274 
3 275 276 97 
3 275 97 261 
3 94 266 277 
3 94 277 278 
3 279 280 250 
3 279 250 249 
3 281 98 246 
3 281 246 282 
3 281 282 283 
