ply
format ascii 1.0
comment VCGLIB generated
element vertex 380
property float x
property float y
property float z
property float nx
property float ny
property float nz
element face 238
property list uchar int vertex_indices
end_header
-5 0 1.25 6.9448e-07 2.12133 2.12131 
0 0 1.25 -4.01789e-06 2.12132 2.12132 
-5 5 1.25 -6.48578e-07 -2.12132 2.12132 
0 5 1.25 1.34993e-07 -2.12132 2.12132 
-5 3.75 0 -3.24289e-07 -2.12132 5.12132 
0 3.75 0 2.69986e-07 -2.12132 7.12132 
-5 1.25 0 1.38896e-06 2.12132 7.12132 
0 1.25 0 -2.00895e-06 2.12131 5.12133 
-0.733047 0.356813 1.20057 -3 -1.0001 1.99989 
-0.646828 0.356813 1.20057 3 -2 1 
-0.733047 4.64255 1.20057 -3 2 1 
-0.646828 4.64255 1.20057 3 1 2 
-0.733047 4.55414 1.11435 -3 -1 0 
-0.646828 4.55414 1.11435 3 -2 0 
-0.733047 0.445222 1.11435 -4 1.31184 -0.725832 
-0.646828 0.445222 1.11435 3 -0.375996 -1.45129 
-0.733047 4.64255 0.976231 -2 1 3 
-0.646828 4.64255 0.976231 1 2 3 
-0.646828 4.55414 0.976231 2 -1 3 
-0.733047 4.55414 0.976231 -1 -2 3 
-0.733047 0.445222 0.976231 -2 0.999932 2.99993 
-0.646828 0.445222 0.976231 2 2 3 
-0.646828 0.356813 0.976231 1 -1 3 
-0.733047 0.356813 0.976231 -1 -2.00003 2.99997 
-0.760895 4.6711 0.976231 -1 2 3 
-0.618988 4.6711 0.976231 2 1 3 
-0.618988 4.52559 0.976231 1 -2 3 
-0.760895 4.52559 0.976231 -2 -1 3 
-0.760895 0.473775 0.976231 -1 2 3 
-0.61898 0.473775 0.976231 2 1 3 
-0.61898 0.32826 0.976231 1 -2 3 
-0.760895 0.32826 0.976231 -2 -1 3 
-0.760895 4.6711 0.917461 -2 1 0 
-0.618988 4.6711 0.917461 1 2 0 
-0.618988 4.52559 0.752975 2 -1 0 
-0.760895 4.52559 0.752975 -1 -2 0 
-0.760895 0.473775 0.752975 -2 1 0 
-0.61898 0.473775 0.752975 1 2 0 
-0.61898 0.32826 0.917461 2 -1 0 
-0.760895 0.32826 0.917461 -1 -2 0 
-0.733047 1.25 0.35133 -3 -1.37609 -2.4514 
-0.733047 1.28541 0.437553 -3 0.672231 2.7402 
-0.646835 1.28541 0.437553 3 1.34466 2.48072 
-0.646828 1.25 0.35133 3 -0.687902 -2.7255 
-0.733047 3.7146 0.437553 -3 -1.34515 2.48006 
-0.733047 3.75 0.35133 -3 0.688316 -2.72541 
-0.646835 3.75 0.35133 3 1.37663 -2.45074 
-0.646835 3.7146 0.437553 3 -0.672587 2.74007 
-0.646828 4.55414 1.20057 3 -1.34516 2.48006 
-0.733047 4.55414 1.20057 -3 -0.672574 2.74003 
-0.733047 4.55414 1.11435 -3 1.37663 -1.45082 
-0.646828 4.55414 1.11435 3 0.688302 -0.725414 
-0.733055 0.445222 1.20057 -2 1.34452 2.48049 
-0.646835 0.445222 1.20057 3 0.672423 2.74042 
-4.35317 0.356813 1.20057 -3 -1 2 
-4.26694 0.356813 1.20057 3 -2 1 
-4.35317 4.64255 1.20057 -3 2 1 
-4.26694 4.64255 1.20057 3 1 2 
-4.35317 4.55414 1.11435 -3 -1 0 
-4.26694 4.55414 1.11435 3 -2 0 
-4.35317 0.445222 1.11435 -4 1.31197 -0.725682 
-4.26694 0.445222 1.11435 3 -0.376061 -1.45136 
-4.35317 4.64255 0.976231 -2 1 3 
-4.26694 4.64255 0.976231 1 2 3 
-4.26694 4.55414 0.976231 2 -1 3 
-4.35317 4.55414 0.976231 -1 -2 3 
-4.35317 0.445222 0.976231 -2 1 3 
-4.26694 0.445222 0.976231 2 2 3 
-4.26694 0.356813 0.976231 1 -1 3 
-4.35317 0.356813 0.976231 -1 -2 3 
-4.38101 4.6711 0.976231 -1 2 3 
-4.2391 4.6711 0.976231 2 1 3 
-4.2391 4.52559 0.976231 1 -2 3 
-4.38101 4.52559 0.976231 -2 -1 3 
-4.38101 0.473775 0.976231 -1 2 3 
-4.2391 0.473775 0.976231 2 1 3 
-4.2391 0.32826 0.976231 1 -2 3 
-4.38101 0.32826 0.976231 -2 -1 3 
-4.38101 4.6711 0.917461 -2 1 0 
-4.2391 4.6711 0.917461 1 2 0 
-4.2391 4.52559 0.752975 2 -1 0 
-4.38101 4.52559 0.752975 -1 -2 0 
-4.38101 0.473775 0.752975 -2 1 0 
-4.2391 0.473775 0.752975 1 2 0 
-4.2391 0.32826 0.917461 2 -1 0 
-4.38101 0.32826 0.917461 -1 -2 0 
-4.35317 1.25 0.35133 -3 -1.37606 -2.45136 
-4.35317 1.28541 0.437553 -3 0.672295 2.74028 
-4.26694 1.28541 0.437553 3 1.34459 2.48057 
-4.26694 1.25 0.35133 3 -0.688031 -2.72568 
-4.35317 3.7146 0.437553 -3 -1.34515 2.48006 
-4.35317 3.75 0.35133 -3 0.688317 -2.72541 
-4.26694 3.75 0.35133 3 1.37663 -2.45082 
-4.26694 3.7146 0.437553 3 -0.672574 2.74003 
-4.26694 4.55414 1.20057 3 -1.34515 2.48006 
-4.35317 4.55414 1.20057 -3 -0.672574 2.74003 
-4.35317 4.55414 1.11435 -3 1.37663 -1.45082 
-4.26694 4.55414 1.11435 3 0.688317 -0.725411 
-4.35317 0.445222 1.20057 -2 1.34459 2.48057 
-4.26694 0.445222 1.20057 3 0.672295 2.74028 
-0.905922 2.60888 0 2 -1 3 
-0.905922 3.44743 0 1 2 3 
-3.38837 3.44743 0 -2 1 3 
-3.38837 2.60888 0 -1 -2 3 
-1.96616 2.60888 0 2 -1 3 
-1.96616 3.44743 0 1 2 4 
-1.77339 2.60888 0 -1 -2 4 
-1.77339 3.44743 0 -2 1 3 
-1.96616 2.60888 0.19017 1 -2 2 
-1.96616 3.44743 0.19017 2 1 1 
-3.38837 3.44743 0.19017 -1 2 2 
-3.38837 2.60888 0.19017 -2 -1 1 
-0.905922 2.60888 0.19017 1 -2 2 
-0.905922 3.44743 0.19017 2 1 1 
-1.77339 3.44743 0.19017 -1 2 2 
-1.77339 2.60888 0.19017 -2 -1 1 
-1.97234 0.922055 0.327942 -2 2.82842 1.41422 
-1.05233 0.922055 0.327942 0.999996 3.53552 0.707104 
-1.97234 0.327947 0.92205 -0.999999 0.70711 3.53553 
-1.05233 0.327947 0.92205 2 1.41422 2.82842 
-1.97234 1.03006 0.435951 -1 2.12131 -0.707114 
-1.05233 1.03006 0.435951 2 2.12132 0.707102 
-1.97234 0.435957 1.03006 -2 0.707108 2.12132 
-1.05233 0.435957 1.03006 1 -0.707106 2.12132 
-4.03014 4.58753 0.837532 -2 -1.4142 2.82841 
-2.32987 4.58753 0.837532 1 -0.707081 3.53551 
-4.03014 4.16247 0.412468 -1 -3.53555 0.707123 
-2.32987 4.16247 0.412468 2 -2.82844 1.41422 
-4.03014 4.50891 0.916161 -1 0.707134 2.1213 
-2.32987 4.50891 0.916161 2 -0.707091 2.12131 
-4.03014 4.08384 0.491096 -2 -2.12133 0.707118 
-2.32987 4.08384 0.491096 1 -2.12134 -0.707089 
-0.646835 1.28541 0.437553 3 1.34466 2.48072 
-0.646828 1.25 0.35133 3 -0.687902 -2.7255 
-0.646835 3.75 0.35133 3 1.37663 -2.45074 
-0.646835 3.7146 0.437553 3 -0.672587 2.74007 
-0.733047 1.25 0.35133 -3 -1.37609 -2.4514 
-0.733047 1.28541 0.437553 -3 0.672231 2.7402 
-0.733047 3.7146 0.437553 -3 -1.34515 2.48006 
-0.733047 3.75 0.35133 -3 0.688316 -2.72541 
-0.646828 4.64255 1.20057 3 1 2 
-0.646828 4.64255 0.976231 1 2 3 
-0.646828 4.55414 1.11435 3 -2 0 
-0.646828 4.55414 0.976231 2 -1 3 
-0.733047 4.55414 1.11435 -3 -1 0 
-0.733047 4.64255 1.20057 -3 2 1 
-0.733047 4.64255 0.976231 -2 1 3 
-0.733047 4.55414 0.976231 -1 -2 3 
-0.646828 0.445222 0.976231 2 2 3 
-0.646828 0.445222 1.11435 3 -0.375996 -1.45129 
-0.646828 0.356813 1.20057 3 -2 1 
-0.646828 0.356813 0.976231 1 -1 3 
-0.733047 4.64255 0.976231 -2 1 3 
-0.646828 4.64255 0.976231 1 2 3 
-0.646828 4.55414 0.976231 2 -1 3 
-0.733047 4.55414 0.976231 -1 -2 3 
-0.733047 0.445222 0.976231 -2 0.999932 2.99993 
-0.646828 0.445222 0.976231 2 2 3 
-0.646828 0.356813 0.976231 1 -1 3 
-0.733047 0.356813 0.976231 -1 -2.00003 2.99997 
-0.760895 4.6711 0.976231 -1 2 3 
-0.618988 4.6711 0.976231 2 1 3 
-0.618988 4.6711 0.976231 2 1 3 
-0.618988 4.52559 0.976231 1 -2 3 
-0.618988 4.6711 0.917461 1 2 0 
-0.618988 4.52559 0.976231 1 -2 3 
-0.760895 4.52559 0.976231 -2 -1 3 
-0.618988 4.52559 0.752975 2 -1 0 
-0.760895 4.52559 0.976231 -2 -1 3 
-0.760895 4.6711 0.976231 -1 2 3 
-0.760895 4.6711 0.917461 -2 1 0 
-0.760895 4.52559 0.752975 -1 -2 0 
-0.760895 0.473775 0.976231 -1 2 3 
-0.61898 0.473775 0.976231 2 1 3 
-0.61898 0.473775 0.976231 2 1 3 
-0.61898 0.32826 0.976231 1 -2 3 
-0.61898 0.473775 0.752975 1 2 0 
-0.61898 0.32826 0.976231 1 -2 3 
-0.760895 0.32826 0.976231 -2 -1 3 
-0.61898 0.32826 0.917461 2 -1 0 
-0.760895 0.32826 0.976231 -2 -1 3 
-0.760895 0.473775 0.976231 -1 2 3 
-0.760895 0.473775 0.752975 -2 1 0 
-0.760895 0.32826 0.917461 -1 -2 0 
-0.733047 0.445222 1.11435 -4 1.31184 -0.725832 
-0.733047 1.28541 0.437553 -3 0.672231 2.7402 
-0.733047 1.25 0.35133 -3 -1.37609 -2.4514 
-0.733055 0.445222 1.20057 -2 1.34452 2.48049 
-0.646835 0.445222 1.20057 3 0.672423 2.74042 
-0.646835 1.28541 0.437553 3 1.34466 2.48072 
-0.733047 1.28541 0.437553 -3 0.672231 2.7402 
-0.646828 1.25 0.35133 3 -0.687902 -2.7255 
-0.646835 1.28541 0.437553 3 1.34466 2.48072 
-0.733047 1.25 0.35133 -3 -1.37609 -2.4514 
-0.646828 1.25 0.35133 3 -0.687902 -2.7255 
-0.646828 0.445222 1.11435 3 -0.375996 -1.45129 
-0.733047 0.445222 1.11435 -4 1.31184 -0.725832 
-0.733047 3.75 0.35133 -3 0.688316 -2.72541 
-0.733047 3.7146 0.437553 -3 -1.34515 2.48006 
-0.733047 4.55414 1.11435 -3 1.37663 -1.45082 
-0.646835 3.75 0.35133 3 1.37663 -2.45074 
-0.733047 3.75 0.35133 -3 0.688316 -2.72541 
-0.646835 3.7146 0.437553 3 -0.672587 2.74007 
-0.646835 3.75 0.35133 3 1.37663 -2.45074 
-0.646828 4.55414 1.11435 3 0.688302 -0.725414 
-0.733047 3.7146 0.437553 -3 -1.34515 2.48006 
-0.646835 3.7146 0.437553 3 -0.672587 2.74007 
-0.646828 4.55414 1.20057 3 -1.34516 2.48006 
-0.733047 4.55414 1.20057 -3 -0.672574 2.74003 
-0.646828 4.64255 1.20057 3 1 2 
-0.733047 4.64255 1.20057 -3 2 1 
-0.733047 4.64255 1.20057 -3 2 1 
-0.733047 4.55414 1.11435 -3 -1 0 
-0.733047 4.55414 1.11435 -3 -1 0 
-0.646828 4.55414 1.11435 3 -2 0 
-0.646828 4.55414 1.11435 3 -2 0 
-0.646828 4.64255 1.20057 3 1 2 
-0.733047 0.356813 1.20057 -3 -1.0001 1.99989 
-0.646828 0.356813 1.20057 3 -2 1 
-0.733047 0.356813 1.20057 -3 -1.0001 1.99989 
-0.733047 0.445222 0.976231 -2 0.999932 2.99993 
-0.733047 0.356813 0.976231 -1 -2.00003 2.99997 
-4.26694 1.28541 0.437553 3 1.34459 2.48057 
-4.26694 1.25 0.35133 3 -0.688031 -2.72568 
-4.26694 3.75 0.35133 3 1.37663 -2.45082 
-4.26694 3.7146 0.437553 3 -0.672574 2.74003 
-4.35317 1.25 0.35133 -3 -1.37606 -2.45136 
-4.35317 1.28541 0.437553 -3 0.672295 2.74028 
-4.35317 3.7146 0.437553 -3 -1.34515 2.48006 
-4.35317 3.75 0.35133 -3 0.688317 -2.72541 
-4.26694 4.64255 1.20057 3 1 2 
-4.26694 4.64255 0.976231 1 2 3 
-4.26694 4.55414 1.11435 3 -2 0 
-4.26694 4.55414 0.976231 2 -1 3 
-4.35317 4.55414 1.11435 -3 -1 0 
-4.35317 4.64255 1.20057 -3 2 1 
-4.35317 4.64255 0.976231 -2 1 3 
-4.35317 4.55414 0.976231 -1 -2 3 
-4.26694 0.445222 0.976231 2 2 3 
-4.26694 0.445222 1.11435 3 -0.376061 -1.45136 
-4.26694 0.356813 1.20057 3 -2 1 
-4.26694 0.356813 0.976231 1 -1 3 
-4.35317 4.64255 0.976231 -2 1 3 
-4.26694 4.64255 0.976231 1 2 3 
-4.26694 4.55414 0.976231 2 -1 3 
-4.35317 4.55414 0.976231 -1 -2 3 
-4.35317 0.445222 0.976231 -2 1 3 
-4.26694 0.445222 0.976231 2 2 3 
-4.26694 0.356813 0.976231 1 -1 3 
-4.35317 0.356813 0.976231 -1 -2 3 
-4.38101 4.6711 0.976231 -1 2 3 
-4.2391 4.6711 0.976231 2 1 3 
-4.2391 4.6711 0.976231 2 1 3 
-4.2391 4.52559 0.976231 1 -2 3 
-4.2391 4.6711 0.917461 1 2 0 
-4.2391 4.52559 0.976231 1 -2 3 
-4.38101 4.52559 0.976231 -2 -1 3 
-4.2391 4.52559 0.752975 2 -1 0 
-4.38101 4.52559 0.976231 -2 -1 3 
-4.38101 4.6711 0.976231 -1 2 3 
-4.38101 4.6711 0.917461 -2 1 0 
-4.38101 4.52559 0.752975 -1 -2 0 
-4.38101 0.473775 0.976231 -1 2 3 
-4.2391 0.473775 0.976231 2 1 3 
-4.2391 0.473775 0.976231 2 1 3 
-4.2391 0.32826 0.976231 1 -2 3 
-4.2391 0.473775 0.752975 1 2 0 
-4.2391 0.32826 0.976231 1 -2 3 
-4.38101 0.32826 0.976231 -2 -1 3 
-4.2391 0.32826 0.917461 2 -1 0 
-4.38101 0.32826 0.976231 -2 -1 3 
-4.38101 0.473775 0.976231 -1 2 3 
-4.38101 0.473775 0.752975 -2 1 0 
-4.38101 0.32826 0.917461 -1 -2 0 
-4.35317 0.445222 1.11435 -4 1.31197 -0.725682 
-4.35317 1.28541 0.437553 -3 0.672295 2.74028 
-4.35317 1.25 0.35133 -3 -1.37606 -2.45136 
-4.35317 0.445222 1.20057 -2 1.34459 2.48057 
-4.26694 0.445222 1.20057 3 0.672295 2.74028 
-4.26694 1.28541 0.437553 3 1.34459 2.48057 
-4.35317 1.28541 0.437553 -3 0.672295 2.74028 
-4.26694 1.25 0.35133 3 -0.688031 -2.72568 
-4.26694 1.28541 0.437553 3 1.34459 2.48057 
-4.35317 1.25 0.35133 -3 -1.37606 -2.45136 
-4.26694 1.25 0.35133 3 -0.688031 -2.72568 
-4.26694 0.445222 1.11435 3 -0.376061 -1.45136 
-4.35317 0.445222 1.11435 -4 1.31197 -0.725682 
-4.35317 3.75 0.35133 -3 0.688317 -2.72541 
-4.35317 3.7146 0.437553 -3 -1.34515 2.48006 
-4.35317 4.55414 1.11435 -3 1.37663 -1.45082 
-4.26694 3.75 0.35133 3 1.37663 -2.45082 
-4.35317 3.75 0.35133 -3 0.688317 -2.72541 
-4.26694 3.7146 0.437553 3 -0.672574 2.74003 
-4.26694 3.75 0.35133 3 1.37663 -2.45082 
-4.26694 4.55414 1.11435 3 0.688317 -0.725411 
-4.35317 3.7146 0.437553 -3 -1.34515 2.48006 
-4.26694 3.7146 0.437553 3 -0.672574 2.74003 
-4.26694 4.55414 1.20057 3 -1.34515 2.48006 
-4.35317 4.55414 1.20057 -3 -0.672574 2.74003 
-4.26694 4.64255 1.20057 3 1 2 
-4.35317 4.64255 1.20057 -3 2 1 
-4.35317 4.64255 1.20057 -3 2 1 
-4.35317 4.55414 1.11435 -3 -1 0 
-4.35317 4.55414 1.11435 -3 -1 0 
-4.26694 4.55414 1.11435 3 -2 0 
-4.26694 4.55414 1.11435 3 -2 0 
-4.26694 4.64255 1.20057 3 1 2 
-4.35317 0.356813 1.20057 -3 -1 2 
-4.26694 0.356813 1.20057 3 -2 1 
-4.35317 0.356813 1.20057 -3 -1 2 
-4.35317 0.445222 0.976231 -2 1 3 
-4.35317 0.356813 0.976231 -1 -2 3 
-1.96616 2.60888 0 2 -1 3 
-1.96616 3.44743 0 1 2 4 
-1.96616 3.44743 0.19017 2 1 1 
-1.96616 2.60888 0.19017 1 -2 2 
-1.96616 3.44743 0 1 2 4 
-3.38837 3.44743 0 -2 1 3 
-3.38837 3.44743 0.19017 -1 2 2 
-1.96616 3.44743 0.19017 2 1 1 
-3.38837 3.44743 0 -2 1 3 
-3.38837 2.60888 0 -1 -2 3 
-3.38837 2.60888 0.19017 -2 -1 1 
-3.38837 3.44743 0.19017 -1 2 2 
-3.38837 2.60888 0 -1 -2 3 
-1.96616 2.60888 0 2 -1 3 
-1.96616 2.60888 0.19017 1 -2 2 
-3.38837 2.60888 0.19017 -2 -1 1 
-0.905922 2.60888 0 2 -1 3 
-0.905922 3.44743 0 1 2 3 
-0.905922 3.44743 0.19017 2 1 1 
-0.905922 2.60888 0.19017 1 -2 2 
-0.905922 3.44743 0 1 2 3 
-1.77339 3.44743 0 -2 1 3 
-1.77339 3.44743 0.19017 -1 2 2 
-0.905922 3.44743 0.19017 2 1 1 
-1.77339 3.44743 0 -2 1 3 
-1.77339 2.60888 0 -1 -2 4 
-1.77339 2.60888 0.19017 -2 -1 1 
-1.77339 3.44743 0.19017 -1 2 2 
-1.77339 2.60888 0 -1 -2 4 
-0.905922 2.60888 0 2 -1 3 
-0.905922 2.60888 0.19017 1 -2 2 
-1.77339 2.60888 0.19017 -2 -1 1 
0 1.25 0 -2.00895e-06 2.12131 5.12133 
-5 1.25 0 1.38896e-06 2.12132 7.12132 
-1.05233 0.922055 0.327942 0.999996 3.53552 0.707104 
-1.97234 0.922055 0.327942 -2 2.82842 1.41422 
-1.97234 1.03006 0.435951 -1 2.12131 -0.707114 
-1.05233 1.03006 0.435951 2 2.12132 0.707102 
-1.97234 0.922055 0.327942 -2 2.82842 1.41422 
-1.97234 0.327947 0.92205 -0.999999 0.70711 3.53553 
-1.97234 0.435957 1.03006 -2 0.707108 2.12132 
-1.97234 1.03006 0.435951 -1 2.12131 -0.707114 
-1.97234 0.327947 0.92205 -0.999999 0.70711 3.53553 
-1.05233 0.327947 0.92205 2 1.41422 2.82842 
-1.05233 0.435957 1.03006 1 -0.707106 2.12132 
-1.97234 0.435957 1.03006 -2 0.707108 2.12132 
-1.05233 0.327947 0.92205 2 1.41422 2.82842 
-1.05233 0.922055 0.327942 0.999996 3.53552 0.707104 
-1.05233 1.03006 0.435951 2 2.12132 0.707102 
-1.05233 0.435957 1.03006 1 -0.707106 2.12132 
-5 3.75 0 -3.24289e-07 -2.12132 5.12132 
0 3.75 0 2.69986e-07 -2.12132 7.12132 
-2.32987 4.58753 0.837532 1 -0.707081 3.53551 
-4.03014 4.58753 0.837532 -2 -1.4142 2.82841 
-4.03014 4.50891 0.916161 -1 0.707134 2.1213 
-2.32987 4.50891 0.916161 2 -0.707091 2.12131 
-4.03014 4.58753 0.837532 -2 -1.4142 2.82841 
-4.03014 4.16247 0.412468 -1 -3.53555 0.707123 
-4.03014 4.08384 0.491096 -2 -2.12133 0.707118 
-4.03014 4.50891 0.916161 -1 0.707134 2.1213 
-4.03014 4.16247 0.412468 -1 -3.53555 0.707123 
-2.32987 4.16247 0.412468 2 -2.82844 1.41422 
-2.32987 4.08384 0.491096 1 -2.12134 -0.707089 
-4.03014 4.08384 0.491096 -2 -2.12133 0.707118 
-2.32987 4.16247 0.412468 2 -2.82844 1.41422 
-2.32987 4.58753 0.837532 1 -0.707081 3.53551 
-2.32987 4.50891 0.916161 2 -0.707091 2.12131 
-2.32987 4.08384 0.491096 1 -2.12134 -0.707089 
3 129 128 130 
3 129 130 131 
3 106 107 105 
3 106 105 104 
3 121 120 122 
3 121 122 123 
3 41 42 47 
3 41 47 44 
3 45 46 43 
3 45 43 40 
3 132 133 134 
3 132 134 135 
3 136 137 138 
3 136 138 139 
3 10 11 17 
3 10 17 16 
3 140 13 18 
3 140 18 141 
3 142 12 19 
3 142 19 143 
3 144 145 146 
3 144 146 147 
3 14 15 21 
3 14 21 20 
3 9 22 148 
3 9 148 149 
3 9 149 53 
3 150 8 23 
3 150 23 151 
3 152 153 25 
3 152 25 24 
3 153 154 26 
3 153 26 25 
3 154 155 27 
3 154 27 26 
3 155 152 24 
3 155 24 27 
3 156 157 29 
3 156 29 28 
3 157 158 30 
3 157 30 29 
3 158 159 31 
3 158 31 30 
3 159 156 28 
3 159 28 31 
3 160 161 33 
3 160 33 32 
3 162 163 34 
3 162 34 164 
3 165 166 35 
3 165 35 167 
3 168 169 170 
3 168 170 171 
3 172 173 37 
3 172 37 36 
3 174 175 38 
3 174 38 176 
3 177 178 39 
3 177 39 179 
3 180 181 182 
3 180 182 183 
3 184 52 185 
3 184 185 186 
3 187 188 189 
3 187 189 190 
3 53 149 191 
3 53 191 192 
3 193 194 195 
3 193 195 196 
3 197 198 49 
3 197 49 50 
3 199 51 200 
3 199 200 201 
3 202 203 204 
3 202 204 48 
3 205 206 207 
3 205 207 208 
3 208 207 209 
3 208 209 210 
3 50 49 211 
3 50 211 212 
3 213 214 51 
3 213 51 199 
3 48 204 215 
3 48 215 216 
3 217 218 188 
3 217 188 187 
3 219 52 184 
3 219 184 220 
3 219 220 221 
3 87 88 93 
3 87 93 90 
3 91 92 89 
3 91 89 86 
3 222 223 224 
3 222 224 225 
3 226 227 228 
3 226 228 229 
3 56 57 63 
3 56 63 62 
3 230 59 64 
3 230 64 231 
3 232 58 65 
3 232 65 233 
3 234 235 236 
3 234 236 237 
3 60 61 67 
3 60 67 66 
3 55 68 238 
3 55 238 239 
3 55 239 99 
3 240 54 69 
3 240 69 241 
3 242 243 71 
3 242 71 70 
3 243 244 72 
3 243 72 71 
3 244 245 73 
3 244 73 72 
3 245 242 70 
3 245 70 73 
3 246 247 75 
3 246 75 74 
3 247 248 76 
3 247 76 75 
3 248 249 77 
3 248 77 76 
3 249 246 74 
3 249 74 77 
3 250 251 79 
3 250 79 78 
3 252 253 80 
3 252 80 254 
3 255 256 81 
3 255 81 257 
3 258 259 260 
3 258 260 261 
3 262 263 83 
3 262 83 82 
3 264 265 84 
3 264 84 266 
3 267 268 85 
3 267 85 269 
3 270 271 272 
3 270 272 273 
3 274 98 275 
3 274 275 276 
3 277 278 279 
3 277 279 280 
3 99 239 281 
3 99 281 282 
3 283 284 285 
3 283 285 286 
3 287 288 95 
3 287 95 96 
3 289 97 290 
3 289 290 291 
3 292 293 294 
3 292 294 94 
3 295 296 297 
3 295 297 298 
3 298 297 299 
3 298 299 300 
3 96 95 301 
3 96 301 302 
3 303 304 97 
3 303 97 289 
3 94 294 305 
3 94 305 306 
3 307 308 278 
3 307 278 277 
3 309 98 274 
3 309 274 310 
3 309 310 311 
3 7 5 101 
3 7 101 100 
3 5 4 102 
3 5 102 105 
3 5 105 107 
3 5 107 101 
3 4 6 103 
3 4 103 102 
3 6 7 100 
3 6 100 106 
3 6 106 104 
3 6 104 103 
3 108 109 110 
3 108 110 111 
3 112 113 114 
3 112 114 115 
3 312 313 314 
3 312 314 315 
3 316 317 318 
3 316 318 319 
3 320 321 322 
3 320 322 323 
3 324 325 326 
3 324 326 327 
3 328 329 330 
3 328 330 331 
3 332 333 334 
3 332 334 335 
3 336 337 338 
3 336 338 339 
3 340 341 342 
3 340 342 343 
3 344 345 116 
3 344 116 117 
3 345 0 118 
3 345 118 116 
3 0 1 119 
3 0 119 118 
3 1 344 117 
3 1 117 119 
3 346 347 348 
3 346 348 349 
3 350 351 352 
3 350 352 353 
3 354 355 356 
3 354 356 357 
3 358 359 360 
3 358 360 361 
3 3 2 124 
3 3 124 125 
3 2 362 126 
3 2 126 124 
3 362 363 127 
3 362 127 126 
3 363 3 125 
3 363 125 127 
3 364 365 366 
3 364 366 367 
3 368 369 370 
3 368 370 371 
3 372 373 374 
3 372 374 375 
3 376 377 378 
3 376 378 379 
